<svg xmlns="http://www.w3.org/2000/svg" width="100" height="100" viewBox="0 0 100 100">
  <rect x="0.5" y="0.5" width="99" height="99" fill="#ffffff" stroke="#111111" stroke-width="1" />
  <path d="M 10,0 V 100 M 20,0 V 100 M 30,0 V 100 M 40,0 V 100 M 50,0 V 100 M 60,0 V 100 M 70,0 V 100 M 80,0 V 100 M 90,0 V 100 M 0,10 H 100 M 0,20 H 100 M 0,30 H 100 M 0,40 H 100 M 0,50 H 100 M 0,60 H 100 M 0,70 H 100 M 0,80 H 100 M 0,90 H 100" fill="none" stroke="#9a9a9a" stroke-width="0.25" />
  <path d="M 0,5 H 100 M 5,0 V 100" fill="none" stroke="#c4523b" stroke-width="0.75" />
</svg>
